<?xml version="1.0" standalone="no"?>
<!DOCTYPE svg PUBLIC "-//W3C//DTD SVG 20010904//EN"
 "http://www.w3.org/TR/2001/REC-SVG-20010904/DTD/svg10.dtd">
<svg version="1.0" xmlns="http://www.w3.org/2000/svg"
 width="1280.000000pt" height="720.000000pt" viewBox="0 0 1280.000000 720.000000"
 preserveAspectRatio="xMidYMid meet">

<g transform="translate(0.000000,720.000000) scale(0.100000,-0.100000)"
fill="#000000" stroke="none">
<path d="M2160 2397 l0 -1584 -112 -6 c-121 -7 -214 -26 -211 -42 3 -15 103
-33 221 -41 l102 -7 0 -83 0 -84 676 0 676 0 -6 1623 c-3 892 -6 1625 -6 1630
0 4 -175 7 -390 7 l-390 0 0 85 0 85 -280 0 -280 0 0 -1583z m111 1563 c37
-20 17 -70 -28 -70 -16 0 -23 -6 -23 -20 0 -11 -4 -20 -10 -20 -6 0 -10 27
-10 60 0 58 1 60 26 60 14 0 34 -5 45 -10z m98 -41 c19 -21 20 -21 15 -1 -5
16 -1 20 20 20 26 0 36 -13 14 -20 -6 -2 -11 -18 -10 -36 0 -22 -4 -32 -14
-32 -8 0 -14 9 -14 21 0 15 -4 19 -16 15 -9 -3 -22 -6 -30 -6 -9 0 -12 -5 -9
-10 4 -6 15 -8 26 -5 11 4 19 2 19 -4 0 -6 -13 -11 -30 -11 -40 0 -58 32 -35
66 19 30 38 31 64 3z m132 4 c13 -15 11 -16 -13 -9 -16 3 -28 2 -28 -3 0 -5
11 -12 25 -15 14 -4 25 -13 25 -21 0 -32 -62 -40 -74 -9 -7 17 6 18 22 2 9 -9
15 -9 23 -1 7 7 3 12 -15 17 -25 6 -35 33 -19 49 12 12 40 7 54 -10z m88 3 c7
-8 11 -27 9 -43 -3 -25 -7 -28 -38 -28 -31 0 -35 3 -38 28 -4 32 13 57 38 57
10 0 23 -6 29 -14z m93 2 c11 -18 10 -78 -2 -78 -5 0 -10 16 -10 35 0 24 -5
35 -15 35 -10 0 -15 -11 -15 -35 0 -24 -5 -35 -15 -35 -11 0 -15 11 -15 38 0
21 2 41 4 43 11 11 60 8 68 -3z m808 -1743 l0 -1615 -655 0 -655 0 0 70 0 70
201 0 201 0 -57 30 c-32 17 -71 41 -87 55 -16 14 -35 25 -41 26 -7 0 -58 0
-114 -1 l-103 -1 0 1490 0 1491 655 0 655 0 0 -1615z"/>
<path d="M2220 3930 c0 -16 5 -21 23 -18 12 2 22 10 22 18 0 8 -10 16 -22 18
-18 3 -23 -2 -23 -18z"/>
<path d="M2320 3910 c0 -5 7 -10 15 -10 8 0 15 5 15 10 0 6 -7 10 -15 10 -8 0
-15 -4 -15 -10z"/>
<path d="M2542 3893 c2 -17 9 -28 18 -28 9 0 16 11 18 28 3 22 -1 27 -18 27
-17 0 -21 -5 -18 -27z"/>
<path d="M3086 3723 c-4 -4 -39 -8 -78 -8 -61 -1 -73 -4 -89 -24 -12 -15 -19
-37 -17 -60 1 -20 -2 -56 -6 -81 -8 -52 5 -83 26 -62 8 8 12 33 11 62 -1 42 2
50 16 50 28 0 29 -6 5 -77 -25 -72 -30 -145 -14 -187 11 -30 57 -56 100 -56
29 0 30 1 30 45 0 25 7 57 16 70 22 34 9 48 -37 42 -32 -4 -42 -1 -54 16 -34
49 -6 122 53 134 70 13 102 -2 102 -48 l0 -28 50 21 c56 23 64 47 32 89 -11
13 -22 37 -26 54 -4 16 -12 36 -18 42 -11 14 -90 18 -102 6z m-21 -313 c7 -12
-12 -40 -26 -40 -10 0 -12 34 -2 43 9 10 21 9 28 -3z"/>
<path d="M2831 3347 c-12 -31 -30 -43 -73 -50 -94 -14 -135 -58 -171 -187 -39
-137 -47 -218 -47 -469 1 -265 7 -320 37 -354 29 -31 78 -395 76 -557 -2 -124
-15 -176 -59 -244 -38 -57 -68 -146 -98 -291 -23 -110 -35 -150 -64 -206 -2
-4 17 -15 42 -24 37 -14 49 -15 61 -5 8 7 15 17 15 23 0 8 131 254 165 308 35
56 112 215 135 278 l27 74 8 -39 c5 -21 9 -100 10 -174 1 -86 10 -188 25 -280
13 -80 23 -164 22 -188 l-1 -43 52 3 52 3 2 110 c2 61 8 168 13 239 14 180 12
343 -5 531 -8 88 -19 230 -25 315 -6 85 -13 156 -15 158 -2 2 -13 -2 -25 -8
-22 -12 -22 -12 -6 11 22 31 22 188 0 289 -38 175 -40 202 -18 258 22 56 22
57 30 152 5 55 2 84 -8 110 -13 32 -13 37 9 69 29 42 29 69 2 103 -17 21 -28
26 -49 21 -24 -4 -32 1 -59 41 -36 52 -48 56 -60 23z m-97 -227 c-1 -113 -24
-240 -43 -240 -5 0 -12 -7 -15 -16 -5 -14 -4 -15 9 -4 9 8 15 8 15 2 0 -6 -4
-14 -10 -17 -5 -3 -10 -17 -10 -31 0 -14 -4 -34 -10 -44 -7 -13 -6 -19 5 -24
9 -3 15 -18 15 -36 0 -17 4 -39 9 -49 7 -13 5 -17 -9 -18 -25 -2 -48 97 -31
134 6 13 9 34 5 46 -3 13 0 35 5 50 6 15 13 82 16 149 8 165 12 190 33 186 14
-3 17 -16 16 -88z m26 -715 c34 -153 47 -195 62 -195 19 0 5 -18 -31 -38 -21
-12 -41 -22 -43 -22 -2 0 -2 16 0 35 3 22 -1 42 -10 53 -17 20 -150 273 -146
277 11 11 124 51 129 46 4 -3 21 -73 39 -156z"/>
<path d="M3062 2934 c-7 -36 -18 -78 -25 -92 -8 -17 -10 -47 -7 -77 l5 -49 16
25 c12 17 19 61 24 142 4 64 6 117 3 117 -2 0 -9 -30 -16 -66z"/>
<path d="M3041 2641 c-1 -24 2 -32 9 -25 7 7 7 19 1 35 -9 23 -10 22 -10 -10z"/>
<path d="M2241 1849 c-1 -19 9 -34 33 -53 19 -14 39 -26 44 -26 10 0 34 81 27
88 -2 2 -9 -15 -16 -37 l-12 -41 -31 24 c-17 13 -34 34 -37 47 -7 24 -7 24 -8
-2z"/>
<path d="M2430 1785 c-22 -23 -18 -34 6 -17 10 6 27 42 20 42 -1 0 -13 -11
-26 -25z"/>
<path d="M2586 808 c4 -7 16 -26 27 -41 10 -15 16 -35 13 -44 -6 -15 11 -16
191 -9 203 6 398 27 414 43 5 5 -19 7 -59 5 -37 -1 -107 1 -157 5 -83 7 -90
10 -93 31 -3 22 -5 22 -173 22 -133 0 -169 -3 -163 -12z m324 -32 c0 -2 -7 -7
-16 -10 -8 -3 -12 -2 -9 4 6 10 25 14 25 6z"/>
<path d="M11807 3863 c-4 -3 -7 -12 -7 -20 0 -11 71 -13 385 -13 378 0 385 0
385 20 0 20 -7 20 -378 20 -208 0 -382 -3 -385 -7z"/>
<path d="M11804 3735 c-12 -30 9 -38 66 -26 3 1 161 1 353 1 343 0 347 0 347
20 0 20 -4 20 -380 20 -318 -1 -382 -3 -386 -15z"/>
<path d="M11803 3614 c-3 -8 -2 -19 3 -23 5 -4 178 -5 384 -2 324 5 375 8 375
21 0 13 -50 15 -378 18 -336 2 -378 1 -384 -14z"/>
<path d="M11804 3496 c-3 -8 -3 -20 1 -26 7 -11 185 -14 185 -2 0 4 131 6 291
4 274 -2 290 -2 287 15 -3 17 -28 18 -381 21 -324 2 -378 0 -383 -12z"/>
<path d="M11892 3383 c-82 -3 -93 -6 -90 -21 3 -16 32 -17 381 -16 207 0 380
4 383 7 4 3 4 13 1 22 -6 13 -43 15 -294 13 -158 -1 -330 -4 -381 -5z"/>
<path d="M5350 2805 c0 -350 3 -535 10 -535 7 0 10 155 10 445 l0 445 445 0
445 0 -3 -445 c-2 -245 0 -445 5 -445 4 0 8 205 8 455 l0 455 -180 0 -180 0 0
80 0 80 -280 0 -280 0 0 -535z m114 499 c27 -11 19 -45 -14 -57 -16 -6 -30
-17 -30 -24 0 -6 -4 -15 -10 -18 -6 -4 -10 15 -10 49 0 53 2 56 24 56 13 0 31
-3 40 -6z m74 -26 c20 -20 14 -38 -14 -38 -15 0 -23 -4 -18 -11 3 -6 15 -9 25
-6 23 6 26 -8 3 -17 -41 -16 -71 36 -38 68 19 19 26 20 42 4z m55 -5 c-7 -3
-13 -18 -13 -33 0 -16 -4 -32 -10 -35 -6 -4 -10 10 -10 34 0 29 4 41 18 43 20
5 32 -3 15 -9z m68 1 c12 -15 11 -16 -9 -10 -12 4 -22 3 -22 -2 0 -5 9 -12 20
-15 26 -7 26 -34 0 -42 -22 -7 -40 0 -40 16 0 6 9 7 21 4 15 -5 19 -4 15 4 -4
6 -14 11 -22 11 -17 0 -19 36 -1 43 20 9 24 8 38 -9z m89 -28 c0 -32 -26 -53
-48 -39 -24 14 -27 54 -7 70 24 17 55 -1 55 -31z m68 32 c15 -15 16 -64 2 -73
-6 -4 -10 8 -10 29 0 25 -4 36 -15 36 -10 0 -15 -10 -15 -30 0 -16 -4 -30 -10
-30 -5 0 -10 15 -10 34 0 32 4 37 41 45 3 0 10 -4 17 -11z"/>
<path d="M5420 3275 c0 -8 9 -15 20 -15 11 0 20 7 20 15 0 8 -9 15 -20 15 -11
0 -20 -7 -20 -15z"/>
<path d="M5700 3245 c0 -16 6 -25 15 -25 9 0 15 9 15 25 0 16 -6 25 -15 25 -9
0 -15 -9 -15 -25z"/>
<path d="M11343 3286 c-1 -22 6 -41 18 -52 18 -16 19 -16 19 0 0 9 -4 15 -9
12 -5 -3 -11 1 -15 9 -3 8 0 14 7 12 7 -1 12 9 12 23 0 14 -6 26 -16 28 -11 2
-15 -6 -16 -32z"/>
<path d="M11456 3311 c-4 -5 -6 -46 -5 -89 1 -62 5 -83 19 -95 17 -14 18 -9
16 86 -1 66 -5 102 -13 104 -6 2 -14 0 -17 -6z m16 -153 c-7 -7 -12 -8 -12 -2
0 14 12 26 19 19 2 -3 -1 -11 -7 -17z"/>
<path d="M11567 3313 c-2 -5 -5 -70 -6 -145 -2 -126 -1 -138 18 -157 l20 -20
0 164 c0 134 -3 165 -14 165 -8 0 -16 -3 -18 -7z"/>
<path d="M11922 3263 c-110 -3 -123 -5 -120 -21 3 -15 28 -17 283 -20 154 -2
326 0 383 3 88 6 103 9 100 23 -3 15 -30 17 -263 17 -143 1 -315 -1 -383 -2z"/>
<path d="M7870 2620 c0 -322 4 -570 9 -570 5 0 6 186 3 433 -2 239 -2 455 2
480 l7 47 440 0 439 0 0 -480 c0 -316 3 -480 10 -480 7 0 9 164 8 487 l-3 486
-180 1 -180 1 -3 83 -3 82 -274 0 -275 0 0 -570z m116 526 c25 -19 9 -50 -29
-54 -17 -2 -24 -8 -21 -17 3 -7 1 -16 -5 -20 -7 -4 -11 13 -11 49 0 52 2 56
23 56 13 0 32 -6 43 -14z m79 -56 c0 -28 -4 -36 -21 -38 -28 -4 -48 22 -40 54
5 20 12 25 34 22 24 -3 27 -7 27 -38z m55 30 c0 -5 -4 -10 -10 -10 -5 0 -10
-13 -10 -30 0 -16 -4 -30 -10 -30 -5 0 -10 18 -10 40 0 33 3 40 20 40 11 0 20
-4 20 -10z m68 -10 c4 -12 2 -13 -9 -2 -15 14 -29 16 -29 3 0 -5 9 -11 21 -14
29 -8 21 -42 -10 -42 -14 0 -26 5 -28 12 -3 7 4 10 19 7 l23 -5 -22 12 c-13 7
-23 21 -23 31 0 15 6 19 27 16 14 -2 28 -10 31 -18z m80 -11 c4 -31 -20 -53
-48 -44 -14 4 -20 15 -20 34 0 35 8 43 40 39 19 -2 26 -10 28 -29z m80 -11 c2
-21 -1 -38 -7 -38 -5 0 -11 15 -13 33 -2 17 -7 32 -13 32 -5 0 -11 -15 -13
-32 -5 -47 -22 -41 -22 8 0 39 1 40 33 37 29 -3 32 -6 35 -40z"/>
<path d="M7940 3125 c0 -8 9 -15 20 -15 11 0 20 7 20 15 0 8 -9 15 -20 15 -11
0 -20 -7 -20 -15z"/>
<path d="M8025 3110 c-3 -5 1 -10 9 -10 9 0 16 5 16 10 0 6 -4 10 -9 10 -6 0
-13 -4 -16 -10z"/>
<path d="M8028 3073 c6 -2 18 -2 25 0 6 3 1 5 -13 5 -14 0 -19 -2 -12 -5z"/>
<path d="M8226 3113 c-12 -12 -6 -43 9 -43 8 0 15 9 15 19 0 21 -13 34 -24 24z"/>
<path d="M11223 3164 c0 -13 5 -24 11 -24 6 0 4 -5 -4 -10 -13 -8 -12 -13 8
-32 18 -18 22 -19 22 -6 0 9 -6 19 -12 21 -10 4 -10 6 0 6 18 1 14 34 -7 53
-17 15 -18 14 -18 -8z"/>
<path d="M11957 3142 c-144 -2 -158 -4 -155 -20 3 -16 31 -17 343 -20 375 -3
428 0 423 26 -3 15 -26 17 -228 17 -124 0 -296 -1 -383 -3z"/>
<path d="M5583 3070 c-83 -37 -109 -131 -53 -192 31 -35 37 -27 21 28 -10 36
2 64 27 64 9 0 33 -10 52 -22 19 -12 44 -22 55 -22 16 -1 20 -8 21 -37 1 -38
29 -94 61 -120 10 -9 36 -17 58 -18 71 -3 114 -43 162 -151 24 -52 47 -108 53
-124 10 -29 10 -29 31 -10 49 43 73 143 46 190 -7 11 -31 38 -54 58 -38 34
-43 44 -43 80 0 56 -12 70 -100 114 -50 25 -76 44 -78 57 -2 11 -11 34 -19 52
-31 66 -152 93 -240 53z"/>
<path d="M11342 3033 c-3 -29 15 -73 30 -73 13 0 9 75 -4 88 -18 18 -23 15
-26 -15z"/>
<path d="M11982 3023 c-167 -3 -183 -5 -180 -21 3 -16 31 -17 383 -17 l380 0
3 23 3 22 -203 -2 c-112 -2 -285 -4 -386 -5z"/>
<path d="M11220 2546 c0 -461 0 -466 20 -466 20 0 20 5 20 448 0 433 -1 450
-20 467 -19 17 -19 14 -20 -449z m30 423 c0 -5 -4 -9 -8 -9 -5 0 -9 7 -9 15 0
8 4 12 9 9 4 -3 8 -9 8 -15z"/>
<path d="M11450 2940 c0 -5 6 -10 13 -10 8 0 7 -4 -3 -10 -14 -9 -7 -15 14
-11 5 1 3 -6 -5 -15 -11 -13 -11 -18 -1 -21 6 -3 9 -10 5 -16 -3 -7 -2 -8 3
-4 17 16 12 73 -7 86 -12 7 -19 7 -19 1z"/>
<path d="M8218 2906 c-15 -8 -38 -16 -50 -18 -13 -2 -28 -15 -36 -30 -7 -16
-17 -28 -23 -28 -5 0 -9 -13 -9 -29 0 -31 14 -41 61 -41 26 0 29 4 29 30 0 25
4 30 23 30 12 0 34 -8 47 -17 13 -10 34 -17 45 -18 15 0 19 -6 18 -23 -3 -26
13 -62 26 -62 12 0 31 56 31 92 0 37 -25 97 -48 114 -23 18 -80 17 -114 0z"/>
<path d="M11340 2490 c0 -405 0 -410 20 -410 20 0 20 5 20 398 0 384 -1 398
-20 409 -19 12 -19 7 -20 -397z"/>
<path d="M11807 2893 c-4 -3 -7 -12 -7 -20 0 -11 67 -13 383 -11 332 3 382 5
382 18 0 13 -50 15 -376 17 -207 2 -379 0 -382 -4z"/>
<path d="M720 2845 c0 -11 12 -15 44 -15 24 0 51 3 60 6 30 12 5 24 -50 24
-41 0 -54 -4 -54 -15z"/>
<path d="M850 2852 c0 -14 36 -22 98 -22 33 0 51 4 47 10 -3 6 1 10 10 10 9 0
13 -4 10 -10 -4 -6 5 -10 19 -10 14 0 26 5 26 10 0 6 10 10 23 10 15 0 18 -3
9 -8 -7 -5 10 -8 42 -8 42 0 51 3 39 11 -18 14 -323 20 -323 7z"/>
<path d="M1194 2845 c13 -13 49 -15 226 -15 193 1 246 8 188 24 -13 3 -114 6
-226 6 -183 0 -202 -2 -188 -15z"/>
<path d="M11560 2839 c0 -13 7 -34 15 -46 11 -16 12 -24 4 -29 -8 -4 -9 -3 -5
4 4 7 2 12 -3 12 -18 0 -13 -18 8 -29 17 -9 18 -6 16 35 -1 26 -9 52 -18 62
-16 15 -17 15 -17 -9z"/>
<path d="M11450 2791 c0 -5 5 -13 10 -16 6 -3 10 -11 10 -16 0 -6 -4 -8 -10
-4 -5 3 -9 -122 -10 -335 0 -337 0 -340 20 -340 21 0 21 2 18 343 -3 311 -5
345 -20 361 -10 10 -18 13 -18 7z"/>
<path d="M10130 2763 c-16 -21 -20 -35 -15 -61 4 -21 1 -39 -6 -48 -10 -12 -9
-21 5 -44 16 -28 16 -31 0 -55 -15 -23 -15 -27 0 -50 17 -25 36 -33 36 -15 0
5 14 25 30 43 36 41 39 64 8 63 -19 -1 -25 7 -36 53 -7 29 -11 60 -8 67 8 21
54 17 66 -6 6 -11 18 -20 26 -20 11 0 13 -6 9 -20 -11 -35 13 -87 51 -109 42
-25 64 -73 64 -136 l0 -46 29 17 c17 10 38 32 47 50 17 32 17 34 -1 53 -16 19
-17 23 -2 39 32 36 25 79 -15 90 -23 6 -34 16 -38 33 -4 18 -13 25 -37 27 -26
3 -32 8 -35 30 -4 33 -67 72 -120 72 -28 0 -42 -6 -58 -27z"/>
<path d="M11808 2773 c-10 -18 -2 -38 15 -37 9 0 181 1 382 2 357 2 365 2 365
22 0 19 -8 20 -371 20 -292 0 -369 -3 -363 -13 6 -9 4 -9 -8 1 -9 7 -18 9 -20
5z"/>
<path d="M5650 2747 c0 -13 7 -32 15 -43 14 -19 14 -19 15 1 0 30 -11 65 -21
65 -5 0 -9 -10 -9 -23z"/>
<path d="M8290 2695 c0 -16 -39 -36 -53 -28 -5 3 -7 -3 -5 -13 3 -13 11 -18
28 -16 29 3 29 2 40 41 5 19 5 31 -1 31 -5 0 -9 -7 -9 -15z"/>
<path d="M11561 2387 c-2 -303 -2 -307 19 -307 20 0 20 5 20 290 0 266 -1 289
-17 283 -9 -4 -14 -2 -10 3 3 6 2 16 -3 24 -4 7 -9 -124 -9 -293z"/>
<path d="M11804 2646 c-3 -8 -3 -20 1 -26 6 -10 87 -14 97 -5 3 3 153 7 334 8
285 2 329 4 329 17 0 22 -753 28 -761 6z"/>
<path d="M720 2615 c0 -13 40 -15 317 -15 211 1 321 5 330 12 7 6 13 6 13 1 0
-4 44 -9 98 -9 58 0 85 2 67 7 l-30 7 33 1 c17 0 32 -3 32 -9 0 -13 34 -8 37
5 2 6 -40 10 -106 10 -60 0 -104 -3 -98 -7 9 -6 9 -8 0 -8 -6 0 -14 4 -18 9
-3 6 -144 10 -340 10 -293 1 -335 -1 -335 -14z"/>
<path d="M11900 2310 l0 -140 25 0 25 0 0 140 0 140 -25 0 -25 0 0 -140z"/>
<path d="M12060 2310 l0 -140 25 0 25 0 0 140 0 140 -25 0 -25 0 0 -140z"/>
<path d="M12230 2310 l0 -140 25 0 25 0 0 140 0 140 -25 0 -25 0 0 -140z"/>
<path d="M12390 2310 l0 -140 25 0 25 0 0 140 0 140 -25 0 -25 0 0 -140z"/>
<path d="M10480 2370 l0 -39 123 -3 122 -3 3 -85 c2 -47 0 -194 -3 -327 l-7
-243 -162 1 c-120 1 -147 3 -107 9 48 7 70 21 71 43 0 9 -51 59 -56 54 -2 -1
1 -19 6 -40 8 -36 0 -54 -19 -43 -4 3 -11 24 -14 47 -3 22 -7 43 -10 45 -7 7
-248 7 -255 -1 -4 -3 -12 -25 -17 -48 -7 -28 -17 -43 -29 -45 -14 -3 -17 0
-13 11 3 9 9 32 13 51 l6 36 -120 0 c-79 0 -122 -4 -124 -11 -2 -6 -25 -13
-51 -16 -43 -5 -47 -4 -47 16 0 31 -49 29 -80 -4 -13 -14 -31 -25 -41 -25 -9
0 -22 -7 -30 -16 -18 -22 3 -33 61 -34 144 -3 378 -11 395 -14 11 -3 48 -5 82
-5 41 -1 67 -6 77 -16 12 -12 54 -15 250 -15 l236 0 0 380 0 380 -130 0 -130
0 0 -40z m90 0 c0 -20 -5 -26 -25 -28 -15 -1 -28 4 -31 13 -10 26 4 45 31 43
20 -2 25 -8 25 -28z m28 -16 c-3 -14 -5 -12 -10 9 -3 19 -2 25 4 19 6 -6 8
-18 6 -28z m42 5 c0 -10 -7 -19 -15 -19 -15 0 -21 31 -9 43 11 10 24 -3 24
-24z m42 4 c-3 -16 -7 -22 -10 -15 -4 13 4 42 11 42 2 0 2 -12 -1 -27z m-25
-15 c-3 -7 -5 -2 -5 12 0 14 2 19 5 13 2 -7 2 -19 0 -25z"/>
<path d="M10520 2370 c0 -15 5 -20 18 -18 9 2 17 10 17 18 0 8 -8 16 -17 18
-13 2 -18 -3 -18 -18z"/>
<path d="M720 2385 c0 -17 141 -19 152 -2 6 9 8 9 8 -1 0 -10 69 -12 335 -12
226 1 335 5 335 12 0 6 6 6 15 -2 12 -10 18 -10 32 1 14 12 16 12 9 0 -6 -9
-5 -12 4 -9 8 2 16 10 18 17 3 9 -93 12 -452 10 -349 -1 -456 -5 -456 -14z"/>
<path d="M10260 2222 c0 -73 -4 -111 -10 -107 -5 3 -10 1 -10 -4 0 -6 -7 -11
-16 -11 -8 0 -12 -4 -9 -10 3 -5 -2 -10 -12 -11 -10 0 -34 -2 -53 -3 -35 -2
-82 19 -157 70 -20 13 -43 22 -50 19 -8 -2 -12 -1 -8 4 3 5 -8 19 -24 30 -18
13 -32 17 -36 11 -10 -17 -25 -11 -25 10 0 13 5 17 14 14 11 -4 13 0 9 15 -5
20 -6 20 -19 4 -7 -10 -14 -22 -14 -26 0 -5 -8 -21 -18 -35 -15 -22 -18 -45
-18 -119 1 -51 -2 -93 -5 -93 -12 0 3 -50 19 -62 10 -8 13 -9 9 -1 -4 6 -3 13
3 15 10 3 40 125 40 166 0 12 5 22 11 22 5 0 61 -13 123 -29 132 -35 220 -37
243 -5 13 17 14 4 11 -108 -2 -69 -7 -130 -11 -135 -5 -4 -17 3 -28 17 -16 21
-20 23 -29 10 -5 -8 -10 -23 -10 -32 0 -16 11 -18 93 -18 l92 1 -47 25 -48 24
0 225 0 225 24 0 c14 0 28 5 31 10 4 7 -6 10 -29 8 l-36 -2 0 -114z"/>
<path d="M4201 2244 c0 -11 3 -14 6 -6 3 7 2 16 -1 19 -3 4 -6 -2 -5 -13z"/>
<path d="M5350 2010 c0 -132 -2 -240 -4 -240 -2 0 -24 9 -50 21 -25 11 -51 17
-56 14 -18 -11 -10 -33 15 -39 13 -3 40 -16 59 -27 l36 -21 -3 -341 -2 -342
-60 -30 c-55 -28 -68 -30 -165 -30 -94 0 -111 3 -164 28 -168 78 -254 220
-244 402 8 151 92 276 234 346 59 29 75 33 157 33 83 1 106 7 107 28 0 15 -96
20 -162 9 -101 -17 -172 -54 -248 -131 -89 -91 -123 -160 -128 -268 -3 -48 1
-109 8 -141 28 -127 117 -240 244 -308 l71 -38 125 0 c116 1 129 3 175 27 l50
27 3 -55 3 -54 462 2 462 3 -4 94 -3 94 43 -35 c24 -20 73 -51 109 -69 63 -33
69 -34 180 -34 112 0 117 1 190 37 265 130 347 463 167 683 -161 197 -434 230
-635 77 -30 -23 -32 -27 -18 -41 14 -13 18 -13 38 5 109 98 291 122 431 56 87
-40 159 -112 200 -200 27 -56 32 -81 35 -154 8 -179 -78 -318 -244 -395 -52
-25 -71 -28 -159 -28 -128 1 -191 24 -275 102 l-60 55 1 169 c1 115 5 167 12
162 6 -4 7 -1 1 8 -16 26 -16 151 1 169 14 15 14 18 0 30 -13 11 -15 54 -15
297 0 187 -3 282 -10 278 -6 -4 -10 -113 -10 -295 l0 -290 -33 -52 c-55 -86
-71 -148 -39 -148 13 0 23 16 37 55 35 104 40 87 40 -135 0 -114 -3 -206 -6
-204 -4 2 -14 19 -23 38 -11 24 -21 33 -31 30 -8 -4 -15 -10 -15 -15 0 -13 39
-91 55 -109 15 -18 18 -38 16 -142 l-1 -78 -440 0 -440 0 0 51 c0 49 3 54 47
92 63 56 108 130 135 221 20 69 21 84 11 161 -14 112 -56 200 -135 277 l-58
58 0 245 c0 157 -4 245 -10 245 -6 0 -10 -87 -10 -240z m116 -417 c67 -103 81
-243 36 -361 -22 -57 -71 -127 -109 -155 l-23 -18 0 322 0 323 31 -30 c18 -16
47 -53 65 -81z"/>
<path d="M4261 2233 c-1 -6 -4 -20 -7 -30 -5 -17 -5 -17 6 0 6 10 9 23 6 30
-3 9 -5 9 -5 0z"/>
<path d="M4211 2138 c-1 -72 -8 -82 -35 -45 -9 12 -14 15 -10 7 4 -8 16 -25
27 -37 19 -21 20 -31 13 -198 -6 -156 -5 -175 9 -175 14 0 15 23 11 212 -4
176 -2 216 10 241 9 16 13 31 10 34 -3 3 -9 -3 -13 -13 -6 -16 -8 -15 -14 11
-5 21 -7 10 -8 -37z"/>
<path d="M5244 2186 c-9 -24 4 -48 23 -44 12 2 18 12 18 28 0 29 -32 41 -41
16z"/>
<path d="M720 2160 c0 -5 174 -9 455 -9 295 0 454 3 450 9 -8 13 -905 14 -905
0z"/>
<path d="M4137 2138 c9 -10 17 -18 19 -18 1 0 0 8 -3 18 -2 10 -11 19 -19 19
-11 0 -11 -4 3 -19z"/>
<path d="M7924 2149 c-10 -17 23 -46 37 -32 7 7 9 19 6 27 -7 18 -33 21 -43 5z"/>
<path d="M7979 2113 c-13 -16 -12 -17 4 -4 16 13 21 21 13 21 -2 0 -10 -8 -17
-17z"/>
<path d="M8275 2085 l-70 -34 218 0 217 -1 0 30 c0 26 -2 29 -22 21 -64 -24
-177 -19 -258 12 -8 3 -46 -10 -85 -28z"/>
<path d="M11900 2045 c0 -31 3 -35 25 -35 22 0 25 4 25 35 0 31 -3 35 -25 35
-22 0 -25 -4 -25 -35z"/>
<path d="M12060 2045 c0 -31 3 -35 25 -35 22 0 25 4 25 35 0 31 -3 35 -25 35
-22 0 -25 -4 -25 -35z"/>
<path d="M12230 2045 c0 -31 3 -35 25 -35 22 0 25 4 25 35 0 31 -3 35 -25 35
-22 0 -25 -4 -25 -35z"/>
<path d="M12390 2045 c0 -31 3 -35 25 -35 22 0 25 4 25 35 0 31 -3 35 -25 35
-22 0 -25 -4 -25 -35z"/>
<path d="M106 2003 c-10 -27 -28 -76 -41 -110 l-23 -63 74 0 74 0 -6 28 c-4
15 -10 32 -14 37 -4 6 -15 43 -25 83 -9 39 -18 72 -19 72 -1 0 -10 -21 -20
-47z"/>
<path d="M9585 2038 c-4 -9 -5 -35 -3 -59 l3 -43 26 35 26 34 -23 24 c-19 21
-24 22 -29 9z"/>
<path d="M7868 1948 l-3 -83 -60 -6 c-65 -6 -128 -24 -161 -46 -11 -7 -24 -10
-29 -6 -4 5 -5 2 -1 -4 4 -7 2 -13 -3 -13 -28 0 -105 -100 -128 -165 -28 -80
-34 -124 -23 -192 27 -166 188 -313 343 -313 56 0 58 -1 64 -30 l6 -30 458 0
459 0 0 80 0 81 20 -19 c12 -11 44 -32 73 -48 48 -27 60 -29 152 -29 87 0 107
3 155 26 102 47 186 145 211 242 18 75 8 194 -24 259 -27 56 -107 143 -139
154 -10 3 -16 10 -13 15 3 5 -2 6 -11 2 -13 -5 -15 -3 -9 7 5 8 4 11 -2 7 -6
-4 -30 0 -53 8 -61 22 -158 19 -232 -6 -35 -12 -65 -25 -68 -28 -3 -4 -17 -14
-32 -24 l-28 -17 0 130 c0 80 -4 130 -10 130 -6 0 -10 -54 -10 -141 l0 -140
-31 -46 c-44 -64 -72 -142 -54 -149 19 -8 35 3 35 24 1 9 12 37 25 62 l24 45
0 -195 c0 -176 -1 -193 -15 -175 -8 11 -17 30 -21 43 -6 24 -43 31 -43 8 0 -7
18 -41 40 -74 38 -56 40 -63 40 -136 l0 -76 -440 0 c-432 0 -440 0 -440 20 0
13 9 22 28 26 97 24 214 127 256 227 34 82 30 199 -8 292 -9 20 -15 37 -16 40
0 2 -11 15 -24 28 -13 13 -25 28 -27 34 -2 6 -25 24 -51 40 -26 17 -44 33 -40
37 4 4 2 6 -3 5 -6 -2 -25 1 -42 5 -24 6 -33 13 -33 28 0 12 -3 18 -7 14 -5
-4 -8 -21 -8 -36 0 -25 6 -32 42 -45 61 -24 137 -96 170 -163 24 -50 28 -69
28 -147 0 -97 -15 -138 -75 -215 -30 -38 -118 -95 -162 -105 l-28 -7 -1 138
c-1 328 2 506 11 528 5 14 5 27 -1 33 -5 5 -10 46 -11 91 -2 45 -6 82 -10 82
-4 0 -8 -37 -10 -82z m0 -278 c-2 -82 -7 -150 -11 -150 -5 0 -6 4 -3 8 2 4
-11 7 -30 7 -20 0 -34 -5 -34 -12 0 -7 -5 -13 -10 -13 -14 0 -8 -39 10 -66 13
-21 41 -22 65 -3 6 4 10 -7 11 -31 0 -22 -3 -37 -8 -34 -4 3 -3 -7 2 -21 6
-15 10 -64 10 -111 0 -100 -3 -103 -92 -86 -105 20 -192 80 -243 167 -122 212
35 492 278 494 l58 1 -3 -150z m1313 122 c73 -36 125 -87 160 -158 28 -56 33
-77 33 -142 0 -64 -5 -88 -28 -139 -87 -191 -315 -256 -490 -139 l-61 41 -3
243 c-1 143 1 241 7 238 5 -3 19 3 32 13 28 22 84 51 119 62 49 16 182 5 231
-19z m-1344 -276 c-3 -8 -1 -17 6 -20 7 -3 1 -3 -12 0 -16 4 -21 3 -17 -5 4
-6 14 -11 23 -11 19 0 9 -13 -12 -16 -22 -3 -27 27 -9 47 20 23 28 24 21 5z"/>
<path d="M8839 1728 c-7 -23 -4 -35 7 -35 9 0 11 4 4 12 -5 7 -7 15 -3 18 3 4
3 7 0 7 -4 0 -7 -1 -8 -2z"/>
<path d="M9310 1621 c0 -6 4 -13 10 -16 6 -3 7 1 4 9 -7 18 -14 21 -14 7z"/>
<path d="M9060 1566 c7 -7 13 -7 20 0 6 6 3 10 -10 10 -13 0 -16 -4 -10 -10z"/>
<path d="M9028 1504 c-5 -4 -8 -15 -8 -25 0 -9 -6 -19 -12 -22 -7 -2 5 -4 27
-3 35 1 40 4 40 25 0 13 -6 26 -14 29 -8 3 -11 0 -7 -6 3 -6 2 -13 -3 -16 -5
-4 -11 1 -13 10 -2 9 -6 12 -10 8z"/>
<path d="M8132 2014 c-21 -14 -22 -41 -1 -29 5 4 9 1 9 -4 0 -6 -7 -11 -16
-11 -19 0 -15 -13 32 -116 38 -84 39 -88 22 -78 -8 4 -10 3 -5 -2 5 -5 11 -8
13 -6 3 2 13 -7 23 -19 17 -21 18 -21 49 -5 18 9 32 19 32 21 0 3 -9 31 -19
62 -32 93 -32 92 27 117 50 21 52 23 30 33 -21 10 -20 11 11 10 19 -1 44 -11
55 -22 20 -19 21 -27 13 -135 -19 -291 -19 -290 52 -290 l46 0 2 58 c3 67 15
121 55 254 26 83 33 97 55 102 20 6 24 12 21 39 l-3 32 -240 3 c-206 2 -243 0
-263 -14z m151 -33 c10 -3 -15 -8 -58 -9 -45 -1 -75 2 -75 8 0 11 105 13 133
1z"/>
<path d="M4423 2005 c-3 -9 -3 -18 -1 -21 3 -3 8 4 11 16 6 23 -1 27 -10 5z"/>
<path d="M9480 1990 c0 -5 5 -10 10 -10 6 0 10 5 10 10 0 6 -4 10 -10 10 -5 0
-10 -4 -10 -10z"/>
<path d="M9527 1993 c-14 -13 -6 -33 13 -33 13 0 20 7 20 20 0 19 -20 27 -33
13z"/>
<path d="M7961 1969 c5 -10 15 -19 22 -18 8 0 7 2 -2 6 -10 4 -10 7 -1 13 8 5
5 9 -9 13 -18 4 -19 2 -10 -14z"/>
<path d="M4402 1944 c10 -10 20 -15 24 -12 3 4 -5 12 -18 18 -22 12 -22 12 -6
-6z"/>
<path d="M720 1936 c0 -11 76 -13 455 -13 327 0 455 3 452 11 -3 8 -138 12
-455 14 -378 2 -452 0 -452 -12z"/>
<path d="M4422 1870 c0 -14 2 -19 5 -12 2 6 2 18 0 25 -3 6 -5 1 -5 -13z"/>
<path d="M9893 1883 c-12 -2 -25 -13 -28 -24 -4 -10 -13 -19 -21 -19 -11 0
-13 6 -9 20 8 25 -20 28 -29 4 -7 -19 -8 -17 21 -33 24 -12 309 -16 316 -3 2
4 7 19 11 35 l6 27 -122 -1 c-68 -1 -133 -4 -145 -6z"/>
<path d="M4411 1762 c-1 -53 3 -81 9 -77 12 7 12 64 1 120 -8 34 -9 28 -10
-43z"/>
<path d="M9730 1830 c0 -5 7 -10 16 -10 8 0 12 5 9 10 -3 6 -10 10 -16 10 -5
0 -9 -4 -9 -10z"/>
<path d="M1 1804 c-1 -21 5 -34 15 -38 18 -7 194 -8 194 -2 0 3 -4 16 -10 30
-9 25 -13 26 -89 26 -73 0 -79 -2 -86 -22 -7 -22 -8 -22 -15 7 l-8 30 -1 -31z"/>
<path d="M8265 1680 c10 -11 20 -20 23 -20 3 0 -3 9 -13 20 -10 11 -20 20 -23
20 -3 0 3 -9 13 -20z"/>
<path d="M8677 1533 c-9 -8 -9 -90 -1 -120 4 -14 14 -23 26 -23 16 0 19 5 14
23 -3 12 -6 46 -6 75 0 37 -4 52 -13 52 -8 0 -17 -3 -20 -7z"/>
<path d="M8328 1504 c-47 -24 -57 -37 -39 -48 14 -9 111 43 111 59 0 21 -17
18 -72 -11z"/>
<path d="M8509 1483 c-1 -10 0 -22 1 -28 2 -5 2 -18 2 -27 -1 -14 2 -15 13 -5
7 6 11 15 9 19 -2 3 2 9 8 11 10 4 10 6 1 6 -7 1 -13 10 -13 21 0 25 -20 27
-21 3z"/>
<path d="M5085 1428 c-11 -6 -21 -12 -23 -13 -2 -2 -5 -16 -7 -33 -5 -37 25
-72 61 -72 31 0 69 34 61 54 -3 9 -2 18 3 21 8 5 -23 45 -35 45 -3 0 -4 -19
-3 -42 3 -42 2 -43 -27 -43 -36 0 -45 27 -20 55 23 25 16 42 -10 28z"/>
<path d="M5743 1404 c-72 -33 -87 -49 -58 -60 33 -13 156 71 133 90 -1 2 -36
-12 -75 -30z"/>
<path d="M6152 1360 c5 -79 18 -114 37 -94 6 5 7 45 4 92 -5 73 -8 82 -26 82
-18 0 -19 -5 -15 -80z"/>
<path d="M6624 1391 c22 -24 3 -40 -22 -19 -29 25 -46 33 -36 17 5 -8 9 -16 9
-19 0 -3 6 -14 12 -25 10 -16 15 -17 37 -7 28 12 34 40 14 60 -20 20 -32 13
-14 -7z"/>
<path d="M8432 1243 c-53 -7 -26 -23 39 -23 46 0 59 3 59 15 0 15 -23 17 -98
8z"/>
<path d="M12673 1235 c22 -82 13 -374 -12 -390 -4 -2 -15 36 -24 86 -30 155
-59 269 -69 269 -5 0 -7 -8 -4 -17 3 -10 23 -104 44 -209 l39 -192 -32 -123
-32 -124 -7 95 c-12 157 -36 309 -58 367 -11 30 -22 53 -24 50 -2 -2 5 -39 16
-83 25 -103 50 -309 50 -421 0 -81 -4 -99 -41 -193 -23 -57 -49 -145 -59 -195
-15 -72 -18 -81 -19 -48 -1 23 -5 45 -11 48 -12 7 -13 -26 -4 -102 10 -76 34
-72 75 9 42 83 85 149 147 227 56 69 73 115 21 56 -17 -19 -36 -32 -42 -28 -6
3 -7 1 -3 -5 4 -6 -14 -38 -39 -70 -25 -33 -64 -92 -85 -133 -37 -70 -39 -72
-34 -34 10 70 43 203 60 242 9 21 26 63 39 94 21 53 109 174 127 174 4 0 8 5
9 10 1 6 10 21 20 35 63 80 79 105 79 119 -1 12 -6 10 -22 -9 -11 -14 -25 -24
-30 -22 -5 1 -7 -2 -3 -8 4 -6 -6 -25 -21 -43 -15 -17 -28 -30 -29 -27 -4 11
-34 -22 -30 -33 2 -7 -11 -30 -30 -51 -19 -22 -35 -36 -35 -33 0 21 64 238 80
272 92 195 122 265 118 276 -3 8 -15 -10 -28 -38 -12 -29 -27 -50 -32 -47 -5
3 -8 0 -7 -7 2 -15 -18 -69 -26 -69 -3 0 -3 29 0 64 6 82 -10 255 -25 270 -9
8 -11 6 -7 -9z m24 -357 c-3 -8 -6 -5 -6 6 -1 11 2 17 5 13 3 -3 4 -12 1 -19z"/>
<path d="M5877 1081 c-73 -9 -57 -26 25 -26 61 0 73 3 76 18 4 18 -8 19 -101
8z"/>
<path d="M11790 955 c-14 -17 1 -72 19 -67 6 1 10 -3 9 -9 -2 -6 2 -13 8 -16
6 -2 11 2 12 9 0 7 3 24 6 38 6 21 5 22 -3 5 -9 -19 -10 -19 -10 3 -1 12 -8
25 -16 28 -8 4 -12 10 -9 15 9 14 -2 10 -16 -6z"/>
<path d="M12776 935 c-9 -26 -7 -32 5 -12 6 10 9 21 6 23 -2 3 -7 -2 -11 -11z"/>
<path d="M11940 786 c0 -15 -4 -25 -9 -22 -15 9 -18 -51 -5 -76 13 -23 18 -18
15 13 -1 9 5 22 14 29 19 16 19 54 0 70 -13 11 -15 8 -15 -14z"/>
<path d="M11840 655 c11 -13 10 -14 -4 -9 -12 4 -16 0 -16 -15 0 -27 35 -62
55 -55 10 4 15 0 15 -10 0 -9 5 -16 11 -16 5 0 7 5 4 10 -3 6 -1 10 4 10 6 0
2 9 -9 20 -11 11 -20 26 -20 33 0 15 -31 47 -45 47 -4 0 -2 -7 5 -15z"/>
<path d="M12240 590 c0 -30 23 -110 32 -110 6 0 8 6 5 14 -3 7 -9 34 -12 60
-4 25 -11 46 -16 46 -5 0 -9 -4 -9 -10z"/>
<path d="M12005 550 c-3 -5 -1 -10 4 -10 6 0 11 5 11 10 0 6 -2 10 -4 10 -3 0
-8 -4 -11 -10z"/>
<path d="M12031 548 c0 -10 -7 -18 -14 -18 -15 0 -48 -36 -40 -44 4 -3 1 -6
-5 -6 -7 0 -12 -9 -12 -20 0 -11 5 -20 10 -20 6 0 10 4 10 9 0 5 9 11 21 14
12 3 18 10 15 16 -4 5 -2 12 4 16 6 4 7 11 4 17 -4 5 4 4 17 -3 20 -10 22 -10
13 2 -7 8 -14 23 -17 34 -4 16 -5 17 -6 3z"/>
<path d="M11958 513 c7 -3 16 -2 19 1 4 3 -2 6 -13 5 -11 0 -14 -3 -6 -6z"/>
<path d="M12130 511 c0 -18 74 -115 78 -102 2 7 -8 30 -23 51 -33 47 -55 68
-55 51z"/>
<path d="M11820 415 c0 -3 7 -22 15 -41 12 -29 18 -34 35 -29 13 4 20 2 20 -6
0 -7 2 -10 5 -7 9 8 -14 60 -33 74 -17 14 -42 18 -42 9z"/>
<path d="M12381 398 c0 -7 4 -22 9 -33 7 -17 9 -15 9 13 1 17 -3 32 -9 32 -5
0 -10 -6 -9 -12z"/>
<path d="M12302 340 c0 -14 2 -19 5 -12 2 6 2 18 0 25 -3 6 -5 1 -5 -13z"/>
<path d="M11920 330 c0 -5 5 -10 11 -10 5 0 7 5 4 10 -3 6 -8 10 -11 10 -2 0
-4 -4 -4 -10z"/>
<path d="M12263 323 c-10 -3 -10 -10 -2 -24 12 -23 29 -16 29 12 0 19 -5 22
-27 12z"/>
<path d="M11951 269 c-1 -9 7 -23 17 -30 15 -12 16 -12 6 1 -6 8 -14 22 -17
30 -5 13 -6 12 -6 -1z"/>
<path d="M11961 204 c0 -11 3 -14 6 -6 3 7 2 16 -1 19 -3 4 -6 -2 -5 -13z"/>
<path d="M12358 55 c-3 -3 -3 -17 0 -30 4 -25 16 -32 26 -17 6 9 -18 54 -26
47z"/>
</g>
</svg>
